<svg height="512pt" viewBox="0 0 512.00036 512" width="512pt" xmlns="http://www.w3.org/2000/svg"><path d="m211.429688 30.480469c-5.765626 2.160156-9.582032 7.671875-9.582032 13.828125v37.738281c-10.550781 3.277344-20.769531 7.511719-30.554687 12.660156l-47.578125-47.574219c-3.421875-3.425781-8.3125-4.953124-13.078125-4.089843s-8.804688 4.011719-10.808594 8.421875l-34.8125 76.585937c-2.546875 5.601563-1.351563 12.199219 3.003906 16.554688l26.6875 26.6875c-5.148437 9.785156-9.382812 20-12.660156 30.554687h-67.277344c-4.84375 0-9.378906 2.375-12.140625 6.355469-2.757812 3.980469-3.390625 9.0625-1.6875 13.597656l29.539063 78.769531c2.160156 5.765626 7.671875 9.582032 13.828125 9.582032h37.738281c3.277344 10.554687 7.511719 20.769531 12.660156 30.554687l-47.574219 47.578125c-3.425781 3.425782-4.953124 8.3125-4.089843 13.078125s4.011719 8.804688 8.421875 10.808594l32.316406 14.691406c1.707031.777344 3.546875 1.21875 5.421875 1.308594 1.945313.089844 3.953125.136719 5.972656.136719 23.527344 0 35.839844-6.03125 46.703125-11.351563 9.511719-4.660156 17.027344-8.339843 33.707032-8.339843 16.679687 0 24.191406 3.679687 33.707031 8.339843 10.863281 5.320313 23.175781 11.351563 46.699219 11.351563h.007812l9.851562-172.308594-9.851562-242.234375zm0 0" fill="#6f6b6e"/><path d="m511.058594 290.199219-29.539063-78.769531c-2.160156-5.765626-7.671875-9.582032-13.828125-9.582032h-37.738281c-3.277344-10.554687-7.511719-20.769531-12.660156-30.554687l47.574219-47.578125c3.425781-3.425782 4.953124-8.3125 4.089843-13.078125s-4.011719-8.804688-8.421875-10.808594l-76.582031-34.8125c-5.605469-2.546875-12.203125-1.351563-16.554687 3.003906l-26.691407 26.6875c-9.785156-5.148437-20-9.382812-30.554687-12.660156v-67.277344c0-4.84375-2.375-9.378906-6.355469-12.140625-3.980469-2.757812-9.0625-3.390625-13.597656-1.6875l-34.199219 12.824219v414.542969c23.519531 0 35.832031-6.03125 46.695312-11.351563 9.511719-4.660156 17.027344-8.339843 33.707032-8.339843 16.683594 0 24.199218 3.679687 33.710937 8.339843 10.863281 5.320313 23.179688 11.351563 46.703125 11.351563l.582032-.003906c5.761718-.03125 10.976562-3.414063 13.359374-8.65625l16.226563-35.695313c2.546875-5.605469 1.351563-12.203125-3.003906-16.554687l-26.6875-26.6875c5.148437-9.785157 9.382812-20 12.660156-30.554688h67.277344c4.84375 0 9.378906-2.375 12.140625-6.355469 2.757812-3.984375 3.390625-9.066406 1.6875-13.601562zm0 0" fill="#242627"/><path d="m137.847656 256c0 65.148438 53.003906 118.152344 118.152344 118.152344l9.855469-119.136719-9.855469-117.167969c-65.148438 0-118.152344 53.003906-118.152344 118.152344zm0 0" fill="#fef4f4"/><path d="m256 137.847656v236.304688c65.148438 0 118.152344-53.003906 118.152344-118.152344s-53.003906-118.152344-118.152344-118.152344zm0 0" fill="#f7e7e7"/><path d="m242.789062 210.011719-19.691406 39.382812c-2.289062 4.578125-2.042968 10.015625.648438 14.371094 2.691406 4.351563 7.445312 7.003906 12.5625 7.003906h15.488281l-9.007813 18.011719c-3.648437 7.296875-.6875 16.164062 6.605469 19.8125 2.121094 1.0625 4.375 1.5625 6.59375 1.5625h.011719l4.925781-54.148438-4.925781-54.148437c-5.414062.003906-10.625 2.980469-13.210938 8.152344zm0 0" fill="#ffe45c"/><path d="m288.257812 248.238281c-2.691406-4.355469-7.449218-7.007812-12.566406-7.007812h-15.484375l9.003907-18.011719c3.648437-7.292969.691406-16.164062-6.605469-19.8125-2.125-1.0625-4.382813-1.550781-6.605469-1.546875v108.296875c5.414062-.003906 10.625-2.996094 13.210938-8.167969l19.691406-39.382812c2.289062-4.578125 2.042968-10.015625-.644532-14.367188zm0 0" fill="#ffc248"/><path d="m255.992188 398.769531c-16.675782 0-24.191407-3.679687-33.707032-8.339843-10.863281-5.320313-23.175781-11.351563-46.699218-11.351563-23.523438 0-35.835938 6.03125-46.699219 11.351563-9.515625 4.660156-17.03125 8.339843-33.707031 8.339843-16.679688 0-24.195313-3.679687-33.710938-8.339843-10.863281-5.320313-23.175781-11.351563-46.699219-11.351563-8.15625 0-14.769531 6.613281-14.769531 14.769531v103.382813c0 8.15625 6.613281 14.769531 14.769531 14.769531h241.230469l9.855469-66.460938-9.855469-46.769531c-.003906 0-.003906 0-.007812 0zm0 0" fill="#64b5f6"/><path d="m497.230469 379.078125c-23.527344 0-35.839844 6.03125-46.703125 11.351563-9.515625 4.660156-17.03125 8.339843-33.710938 8.339843-16.679687 0-24.195312-3.679687-33.710937-8.339843-10.863281-5.320313-23.175781-11.351563-46.703125-11.351563-23.523438 0-35.835938 6.03125-46.699219 11.351563-9.515625 4.660156-17.027344 8.339843-33.703125 8.339843v113.230469h241.230469c8.15625 0 14.769531-6.613281 14.769531-14.769531v-103.382813c0-8.15625-6.613281-14.769531-14.769531-14.769531zm0 0" fill="#1e88e5"/></svg>