<?xml version="1.0" encoding="iso-8859-1"?>
<!-- Generator: Adobe Illustrator 19.0.0, SVG Export Plug-In . SVG Version: 6.00 Build 0)  -->
<svg xmlns="http://www.w3.org/2000/svg" xmlns:xlink="http://www.w3.org/1999/xlink" version="1.1" id="Layer_1" x="0px" y="0px" viewBox="0 0 512 512" style="enable-background:new 0 0 512 512;" xml:space="preserve" width="512" height="512">
<g>
	<g>
		<path style="fill:#FFFFFF;" d="M502,136v300c0,11.05-8.95,20-20,20H30c-11.05,0-20-8.95-20-20V136H502z"/>
		<path style="fill:#697C86;" d="M502,76v60H10V76c0-11.05,8.95-20,20-20h452C493.05,56,502,64.95,502,76z"/>
		<rect x="316" y="356" style="fill:#FF765B;" width="40" height="40"/>
		<rect x="316" y="276" style="fill:#FF765B;" width="40" height="40"/>
		<rect x="316" y="196" style="fill:#FF765B;" width="40" height="40"/>
		<path style="fill:#FF765B;" d="M256,196v200H50V196H256z"/>
		<polygon style="fill:#FFFFFF;" points="193,296 113,346 113,246   "/>
	</g>
	<g>
		<path d="M336,106c5.52,0,10-4.48,10-10s-4.48-10-10-10s-10,4.48-10,10S330.48,106,336,106z"/>
		<path d="M153,106c5.52,0,10-4.48,10-10s-4.48-10-10-10s-10,4.48-10,10S147.48,106,153,106z"/>
		<path d="M113,106c5.52,0,10-4.48,10-10s-4.48-10-10-10s-10,4.48-10,10S107.48,106,113,106z"/>
		<path d="M73,106c5.52,0,10-4.48,10-10s-4.48-10-10-10s-10,4.48-10,10S67.48,106,73,106z"/>
		<path d="M482,46H30C13.458,46,0,59.458,0,76v360c0,16.542,13.458,30,30,30h452c16.542,0,30-13.458,30-30V76    C512,59.458,498.542,46,482,46z M30,66h452c5.514,0,10,4.486,10,10v50H20V76C20,70.486,24.486,66,30,66z M482,446H30    c-5.514,0-10-4.486-10-10V146h472v290C492,441.514,487.514,446,482,446z"/>
		<path d="M376,106h66c5.522,0,10-4.478,10-10s-4.478-10-10-10h-66c-5.522,0-10,4.478-10,10S370.478,106,376,106z"/>
		<path d="M256,186H50c-5.523,0-10,4.478-10,10v200c0,5.522,4.477,10,10,10h206c5.522,0,10-4.478,10-10V196    C266,190.478,261.522,186,256,186z M246,386H60V206h186V386z"/>
		<path d="M108.152,354.746c3.13,1.737,7.018,1.689,10.147-0.266l80-50c2.924-1.828,4.7-5.032,4.7-8.48s-1.776-6.652-4.7-8.48    l-80-50c-3.082-1.926-6.968-2.028-10.147-0.266c-3.18,1.762-5.152,5.11-5.152,8.746v100    C103,349.636,104.973,352.984,108.152,354.746z M123,264.043L174.132,296L123,327.957V264.043z"/>
		<path d="M356,186h-40c-5.522,0-10,4.478-10,10v40c0,5.522,4.478,10,10,10h40c5.522,0,10-4.478,10-10v-40    C366,190.478,361.522,186,356,186z M346,226h-20v-20h20V226z"/>
		<path d="M462,206h-66c-5.522,0-10,4.478-10,10s4.478,10,10,10h66c5.522,0,10-4.478,10-10S467.522,206,462,206z"/>
		<path d="M356,266h-40c-5.522,0-10,4.478-10,10v40c0,5.522,4.478,10,10,10h40c5.522,0,10-4.478,10-10v-40    C366,270.478,361.522,266,356,266z M346,306h-20v-20h20V306z"/>
		<path d="M462,286h-66c-5.522,0-10,4.478-10,10s4.478,10,10,10h66c5.522,0,10-4.478,10-10S467.522,286,462,286z"/>
		<path d="M356,346h-40c-5.522,0-10,4.478-10,10v40c0,5.522,4.478,10,10,10h40c5.522,0,10-4.478,10-10v-40    C366,350.478,361.522,346,356,346z M346,386h-20v-20h20V386z"/>
		<path d="M462,366h-66c-5.522,0-10,4.478-10,10s4.478,10,10,10h66c5.522,0,10-4.478,10-10S467.522,366,462,366z"/>
	</g>
</g>















</svg>
