<svg height="512.00001pt" viewBox="0 0 512.00001 512.00001" width="512.00001pt" xmlns="http://www.w3.org/2000/svg"><path d="m297.289062 132.128906c0 22.804688-18.484374 41.289063-41.289062 41.289063s-41.289062-18.484375-41.289062-41.289063c0-22.804687 18.484374-41.289062 41.289062-41.289062s41.289062 18.484375 41.289062 41.289062zm0 0" fill="#6e4848"/><path d="m338.582031 206.453125c0 45.605469-36.972656 82.578125-82.582031 82.578125s-82.582031-36.972656-82.582031-82.578125c0-45.609375 36.972656-82.582031 82.582031-82.582031s82.582031 36.972656 82.582031 82.582031zm0 0" fill="#6e4848"/><path d="m348.960938 356.710938-50.332032-23.230469c-5.851562-2.699219-9.597656-8.554688-9.597656-14.996094v-29.453125h-66.0625v29.453125c0 6.441406-3.746094 12.296875-9.597656 14.996094l-50.335938 23.230469c-8.773437 4.050781-14.390625 12.832031-14.390625 22.496093v8.921875c0 9.121094 7.394531 16.515625 16.515625 16.515625h181.679688c9.121094 0 16.515625-7.394531 16.515625-16.515625v-8.921875c0-9.664062-5.621094-18.445312-14.394531-22.496093zm0 0" fill="#ecbd83"/><path d="m222.96875 314.949219c8.535156 3.835937 17.789062 6.304687 27.566406 6.9375 1.832032.121093 3.660156.179687 5.464844.179687 11.746094 0 22.90625-2.503906 33.03125-6.945312v-26.089844h-66.0625zm0 0" fill="#e2a975"/><path d="m309.25 212.167969c-17.453125-4.078125-49.171875-13.714844-72.316406-33.480469-3.300782-2.820312-8.128906-2.84375-11.199219.222656l-30.960937 30.960938c-3.097657 3.097656-4.839844 7.300781-4.839844 11.679687v15.671875c0 35.183594 26.554687 65.910156 61.667968 68.183594 38.476563 2.492188 70.460938-27.980469 70.460938-65.921875v-11.226563c.003906-7.710937-5.304688-14.335937-12.8125-16.089843zm0 0" fill="#f6d190"/><path d="m256 277.417969c-7.539062 0-14.816406-2.164063-21.046875-6.257813-3.816406-2.503906-4.871094-7.625-2.371094-11.433594 2.515625-3.816406 7.636719-4.855468 11.433594-2.371093 7.066406 4.644531 16.902344 4.644531 23.96875 0 3.804687-2.484375 8.925781-1.445313 11.433594 2.371093 2.5 3.808594 1.445312 8.929688-2.371094 11.433594-6.230469 4.09375-13.507813 6.257813-21.046875 6.257813zm0 0" fill="#c38c66"/><path d="m237.5 199.703125c30.707031 20.847656 64.773438 27.898437 84.5625 30.289063v-1.734376c.003906-7.667968-5.265625-14.332031-12.734375-16.074218-17.488281-4.078125-49.398437-13.757813-72.59375-33.667969-3.207031-2.75-7.96875-2.636719-10.957031.351563l-31.003906 31.003906c-3.097657 3.097656-4.839844 7.300781-4.839844 11.679687v15.800781c0 27.835938 16.566406 53.359376 42.425781 63.664063 12.632813 5.035156 24.871094 5.484375 36.050781 3.378906-30.496094-5.851562-53.699218-32.707031-53.699218-64.910156v-19.351563c0-4.378906 1.738281-8.578124 4.835937-11.679687l7.847656-7.84375c2.707031-2.707031 6.9375-3.054687 10.105469-.90625zm0 0" fill="#ecbd83"/><path d="m222.96875 239.484375c-4.566406 0-8.257812-3.699219-8.257812-8.257813v-8.257812c0-4.5625 3.691406-8.257812 8.257812-8.257812 4.5625 0 8.257812 3.695312 8.257812 8.257812v8.257812c0 4.558594-3.695312 8.257813-8.257812 8.257813zm0 0" fill="#6e4848"/><path d="m289.03125 239.484375c-4.5625 0-8.257812-3.699219-8.257812-8.257813v-8.257812c0-4.5625 3.695312-8.257812 8.257812-8.257812 4.566406 0 8.257812 3.695312 8.257812 8.257812v8.257812c0 4.558594-3.691406 8.257813-8.257812 8.257813zm0 0" fill="#6e4848"/><path d="m330.324219 194.066406c2.421875 0 4.90625-.191406 7.289062-.34375-6.144531-39.539062-40.351562-69.851562-81.613281-69.851562-9.53125 0-18.648438 1.695312-27.164062 4.667968 17.515624 38.617188 56.320312 65.527344 101.488281 65.527344zm0 0" fill="#8a6055"/><path d="m363.355469 388.128906v-8.921875c0-9.664062-5.621094-18.445312-14.394531-22.496093l-25.363282-11.707032c-39.539062 35.378906-95.65625 35.378906-135.195312 0l-25.363282 11.707032c-8.773437 4.050781-14.394531 12.832031-14.394531 22.496093v8.921875c0 9.121094 7.394531 16.515625 16.515625 16.515625h181.679688c9.121094 0 16.515625-7.394531 16.515625-16.515625zm0 0" fill="#f9eac7"/><path d="m165.160156 355.730469-2.121094.980469c-8.773437 4.050781-14.394531 12.832031-14.394531 22.496093v8.921875c0 9.121094 7.394531 16.515625 16.515625 16.515625h181.679688c9.121094 0 16.515625-7.394531 16.515625-16.515625h-173.421875c-13.679688 0-24.773438-11.09375-24.773438-24.773437zm0 0" fill="#f4dbb3"/><path d="m280.773438 24.773438c0 13.683593-11.089844 24.773437-24.773438 24.773437s-24.773438-11.089844-24.773438-24.773437c0-13.683594 11.089844-24.773438 24.773438-24.773438s24.773438 11.089844 24.773438 24.773438zm0 0" fill="#ffe07d"/><g fill="#eceaec"><path d="m56.832031 381.675781c-2.824219 0-5.582031-1.449219-7.121093-4.054687-11.476563-19.433594-20.105469-40.21875-25.652344-61.757813-1.136719-4.410156 1.523437-8.917969 5.941406-10.054687 4.386719-1.121094 8.921875 1.523437 10.058594 5.941406 5.152344 20.03125 13.191406 39.371094 23.878906 57.46875 2.3125 3.925781 1.015625 8.992188-2.914062 11.316406-1.320313.769532-2.765626 1.140625-4.191407 1.140625zm0 0"/><path d="m32.066406 206.453125c-.6875 0-1.378906-.082031-2.066406-.257813-4.417969-1.136718-7.082031-5.644531-5.945312-10.058593 5.550781-21.539063 14.179687-42.320313 25.65625-61.757813 2.320312-3.917968 7.386718-5.207031 11.3125-2.910156 3.925781 2.324219 5.226562 7.386719 2.910156 11.316406-10.683594 18.09375-18.722656 37.433594-23.878906 57.464844-.957032 3.726562-4.3125 6.203125-7.988282 6.203125zm0 0"/><path d="m373.417969 65.082031c-1.425781 0-2.871094-.371093-4.191407-1.144531-18.082031-10.6875-37.421874-18.71875-57.476562-23.878906-4.421875-1.136719-7.082031-5.648438-5.945312-10.058594 1.136718-4.417969 5.695312-7.0625 10.054687-5.941406 21.566406 5.554687 42.347656 14.183594 61.769531 25.652344 3.925782 2.320312 5.222656 7.386718 2.910156 11.3125-1.539062 2.605468-4.296874 4.058593-7.121093 4.058593zm0 0"/><path d="m198.203125 488.203125c-.6875 0-1.378906-.082031-2.066406-.257813-21.574219-5.558593-42.347657-14.1875-61.757813-25.65625-3.925781-2.320312-5.226562-7.386718-2.910156-11.3125 2.332031-3.917968 7.386719-5.21875 11.3125-2.910156 18.074219 10.683594 37.414062 18.714844 57.46875 23.878906 4.421875 1.136719 7.082031 5.644532 5.945312 10.054688-.960937 3.726562-4.316406 6.203125-7.992187 6.203125zm0 0"/><path d="m313.796875 488.203125c-3.675781 0-7.03125-2.476563-7.992187-6.203125-1.136719-4.410156 1.523437-8.917969 5.945312-10.054688 20.054688-5.164062 39.394531-13.195312 57.476562-23.878906 3.945313-2.308594 9-1.007812 11.3125 2.910156 2.316407 3.925782 1.019532 8.992188-2.910156 11.3125-19.417968 11.46875-40.199218 20.097657-61.765625 25.65625-.6875.175782-1.378906.257813-2.066406.257813zm0 0"/><path d="m479.933594 206.453125c-3.675782 0-7.03125-2.476563-7.992188-6.203125-5.160156-20.054688-13.191406-39.394531-23.878906-57.46875-2.3125-3.925781-1.015625-8.992188 2.914062-11.3125 3.949219-2.300781 8.984376-1.007812 11.3125 2.910156 11.46875 19.410156 20.097657 40.183594 25.652344 61.757813 1.136719 4.410156-1.523437 8.917969-5.941406 10.054687-.683594.179688-1.378906.261719-2.066406.261719zm0 0"/><path d="m455.167969 381.675781c-1.425781 0-2.871094-.371093-4.191407-1.144531-3.929687-2.320312-5.226562-7.386719-2.914062-11.3125 10.6875-18.074219 18.71875-37.414062 23.878906-57.46875 1.136719-4.421875 5.710938-7.074219 10.058594-5.945312 4.417969 1.136718 7.078125 5.644531 5.941406 10.054687-5.554687 21.574219-14.183594 42.347656-25.652344 61.757813-1.546874 2.609374-4.296874 4.058593-7.121093 4.058593zm0 0"/><path d="m138.589844 65.082031c-2.824219 0-5.574219-1.453125-7.121094-4.058593-2.316406-3.925782-1.015625-8.992188 2.910156-11.3125 19.410156-11.46875 40.183594-20.097657 61.757813-25.652344 4.371093-1.113282 8.917969 1.523437 10.054687 5.941406 1.136719 4.410156-1.523437 8.921875-5.941406 10.058594-20.058594 5.160156-39.394531 13.191406-57.46875 23.878906-1.320312.773438-2.765625 1.144531-4.191406 1.144531zm0 0"/></g><path d="m268.386719 37.160156c-13.683594 0-24.773438-11.089844-24.773438-24.773437 0-3.628907.789063-7.085938 2.195313-10.195313-8.605469 3.886719-14.582032 12.53125-14.582032 22.582032 0 13.683593 11.089844 24.773437 24.773438 24.773437 10.050781 0 18.699219-5.976563 22.582031-14.578125-3.105469 1.402344-6.5625 2.191406-10.195312 2.191406zm0 0" fill="#ffd064"/><path d="m280.773438 487.226562c0 13.683594-11.089844 24.773438-24.773438 24.773438s-24.773438-11.089844-24.773438-24.773438c0-13.683593 11.089844-24.773437 24.773438-24.773437s24.773438 11.089844 24.773438 24.773437zm0 0" fill="#ffe07d"/><path d="m268.386719 499.613281c-13.683594 0-24.773438-11.09375-24.773438-24.773437 0-3.632813.789063-7.085938 2.195313-10.195313-8.605469 3.886719-14.582032 12.53125-14.582032 22.582031 0 13.679688 11.089844 24.773438 24.773438 24.773438 10.050781 0 18.699219-5.976562 22.582031-14.578125-3.105469 1.402344-6.5625 2.191406-10.195312 2.191406zm0 0" fill="#ffd064"/><path d="m49.546875 256c0 13.683594-11.089844 24.773438-24.773437 24.773438-13.683594 0-24.773438-11.089844-24.773438-24.773438s11.089844-24.773438 24.773438-24.773438c13.683593 0 24.773437 11.089844 24.773437 24.773438zm0 0" fill="#ffe07d"/><path d="m37.160156 268.386719c-13.679687 0-24.773437-11.089844-24.773437-24.773438 0-3.632812.789062-7.089843 2.191406-10.195312-8.601563 3.882812-14.578125 12.53125-14.578125 22.582031 0 13.683594 11.09375 24.773438 24.773438 24.773438 10.050781 0 18.703124-5.972657 22.585937-14.574219-3.105469 1.402343-6.566406 2.1875-10.199219 2.1875zm0 0" fill="#ffd064"/><path d="m512 256c0 13.683594-11.089844 24.773438-24.773438 24.773438-13.683593 0-24.773437-11.089844-24.773437-24.773438s11.089844-24.773438 24.773437-24.773438c13.683594 0 24.773438 11.089844 24.773438 24.773438zm0 0" fill="#ffe07d"/><path d="m499.613281 268.386719c-13.683593 0-24.773437-11.089844-24.773437-24.773438 0-3.632812.789062-7.089843 2.191406-10.195312-8.601562 3.882812-14.578125 12.53125-14.578125 22.582031 0 13.683594 11.089844 24.773438 24.773437 24.773438 10.050782 0 18.699219-5.976563 22.582032-14.578126-3.109375 1.402344-6.566406 2.191407-10.195313 2.191407zm0 0" fill="#ffd064"/><path d="m444.273438 92.5c0 13.679688-11.089844 24.773438-24.773438 24.773438-13.679688 0-24.773438-11.09375-24.773438-24.773438 0-13.683594 11.09375-24.773438 24.773438-24.773438 13.683594 0 24.773438 11.089844 24.773438 24.773438zm0 0" fill="#ffc269"/><path d="m431.886719 104.886719c-13.679688 0-24.773438-11.09375-24.773438-24.773438 0-3.632812.785157-7.09375 2.191407-10.199219-8.605469 3.886719-14.578126 12.53125-14.578126 22.585938 0 13.679688 11.089844 24.773438 24.773438 24.773438 10.050781 0 18.699219-5.976563 22.585938-14.578126-3.109376 1.402344-6.566407 2.191407-10.199219 2.191407zm0 0" fill="#ffa95f"/><path d="m117.273438 419.5c0 13.683594-11.09375 24.773438-24.773438 24.773438-13.683594 0-24.773438-11.089844-24.773438-24.773438 0-13.679688 11.089844-24.773438 24.773438-24.773438 13.679688 0 24.773438 11.09375 24.773438 24.773438zm0 0" fill="#ffc269"/><path d="m104.886719 431.886719c-13.683594 0-24.773438-11.089844-24.773438-24.773438 0-3.628906.789063-7.085937 2.191407-10.195312-8.601563 3.886719-14.582032 12.53125-14.582032 22.582031 0 13.683594 11.09375 24.773438 24.773438 24.773438 10.054687 0 18.699218-5.976563 22.582031-14.578126-3.105469 1.402344-6.5625 2.191407-10.191406 2.191407zm0 0" fill="#ffa95f"/><path d="m117.273438 92.5c0 13.679688-11.09375 24.773438-24.773438 24.773438-13.683594 0-24.773438-11.09375-24.773438-24.773438 0-13.683594 11.089844-24.773438 24.773438-24.773438 13.679688 0 24.773438 11.089844 24.773438 24.773438zm0 0" fill="#ffc269"/><path d="m104.886719 104.886719c-13.683594 0-24.773438-11.09375-24.773438-24.773438 0-3.632812.785157-7.089843 2.1875-10.199219-8.601562 3.886719-14.574219 12.53125-14.574219 22.585938 0 13.679688 11.089844 24.773438 24.773438 24.773438 10.050781 0 18.710938-6.011719 22.59375-14.613282-3.105469 1.402344-6.578125 2.226563-10.207031 2.226563zm0 0" fill="#ffa95f"/><path d="m444.273438 419.5c0 13.683594-11.089844 24.773438-24.773438 24.773438-13.679688 0-24.773438-11.089844-24.773438-24.773438 0-13.679688 11.09375-24.773438 24.773438-24.773438 13.683594 0 24.773438 11.09375 24.773438 24.773438zm0 0" fill="#ffc269"/><path d="m431.886719 431.886719c-13.679688 0-24.773438-11.089844-24.773438-24.773438 0-3.628906.785157-7.089843 2.191407-10.195312-8.601563 3.882812-14.578126 12.53125-14.578126 22.585937 0 13.679688 11.09375 24.773438 24.773438 24.773438 10.054688 0 18.699219-5.976563 22.582031-14.582032-3.105469 1.40625-6.5625 2.191407-10.195312 2.191407zm0 0" fill="#ffa95f"/></svg>